<svg xmlns="http://www.w3.org/2000/svg" width="512" height="512" viewBox="0 0 512 512">
  <metadata><?xpacket begin="﻿" id="W5M0MpCehiHzreSzNTczkc9d"?>
<x:xmpmeta xmlns:x="adobe:ns:meta/" x:xmptk="Adobe XMP Core 5.6-c138 79.159824, 2016/09/14-01:09:01        ">
   <rdf:RDF xmlns:rdf="http://www.w3.org/1999/02/22-rdf-syntax-ns#">
      <rdf:Description rdf:about=""/>
   </rdf:RDF>
</x:xmpmeta>                  
<?xpacket end="w"?></metadata>
<defs>
    <style>
      .cls-1 {
        fill: #ffffff;
        fill-rule: evenodd;
      }
    </style>
  </defs>
  <path class="cls-1" d="M430.794,240H81.207C71.7,240,64,247.164,64,256s7.7,16,17.207,16H430.794c9.5,0,17.206-7.164,17.206-16s-7.7-16-17.206-16h0Zm0-112H81.207C71.7,128,64,135.164,64,144s7.7,16,17.207,16H430.794c9.5,0,17.206-7.164,17.206-16s-7.7-16-17.206-16h0Zm0,224H81.206C71.7,352,64,359.165,64,368s7.7,16,17.206,16H430.794c9.5,0,17.206-7.163,17.206-16s-7.7-16-17.206-16h0Z"/>
</svg>
